<svg viewBox="0 0 16 31" xmlns="http://www.w3.org/2000/svg" xmlns:xlink="http://www.w3.org/1999/xlink"><linearGradient id="a"><stop offset="0"/><stop offset="1" stop-opacity="0"/></linearGradient><radialGradient id="b" cx="48.339718%" cy="49.418621%" gradientTransform="matrix(.93878524 -.17906229 .34450293 .4879524 -.140657 .339605)" r="22.814574%" xlink:href="#a"/><radialGradient id="c" cx="48.339718%" cy="49.418621%" gradientTransform="matrix(.93885272 -.17907514 .34431899 .48828322 -.140599 .339448)" r="22.812934%" xlink:href="#a"/><path d="m10.2340841 0-.0112824 6.80255911-.0113421 6.80255889-.52806616-1.5791655c-.00018338-.0005442-.0008344-.0025558-.00101473-.0031l-.68237871 15.1442983c.67090832 2.0080156 1.0303654 3.0799658 1.0344029 3.0842443.0052827.0056007.3876212.0300456.8496455.0543469 1.3998297.0736199 3.1344962.2313742 4.4504156.4046612.3046856.040119.5669012.0606643.5826872.0456796.0157864-.0149851.0243825-6.9412454.0191026-15.3916757l-.0096109-15.3644071h-2.8462794z" fill="#b1060f"/><path d="m0 0v15.379971c0 8.4589951.00780973 15.3883094.0173714 15.3984452.00956105.0101326.50383959-.0393246 1.09839641-.1098963.59455621-.0705749 1.41627471-.1583322 1.82602432-.1949915.62842702-.056228 2.50472435-.1840856 2.72199366-.1855012.06320222-.0004211.06725594-.3460096.07641018-6.5143109l.00967047-6.5138678.45398409 1.3613343c.07016014.2104073.09216749.2761119.16052099.4810889l.68219961-15.14056546c-.14454576-.43313454-.06877284-.20576193-.234424-.7021466-.55739488-1.67027131-1.03038371-3.08696576-1.05111746-3.14820823l-.03772769-.11135141h-2.86162103z" fill="#b1060f"/><path d="m0 0 .00000153 8.63321429 5.73828571 16.13254181c.00059906-.3696919.0012837-.56945.00191026-.9920398l.00967047-6.5138678.45398409 1.3613343c2.52707096 7.5785787 3.88475584 11.6419969 3.89274074 11.650458.0052827.0056008.3876212.0300456.8496455.0543469 1.3998297.0736199 3.1344962.2313742 4.4504156.4046613.3046856.0401189.5669012.0606642.5826872.0456795.0108503-.0102998.0179332-3.4064015.019819-8.1973622l-5.7114223-17.40302353-.0027478 1.64686205-.011342 6.80255888-.52806618-1.5791655c-.51597812-1.543018-.86049361-2.57493054-2.93343469-8.78663856-.55739488-1.67027131-1.03038371-3.08696576-1.05111746-3.14820823l-.03772769-.11135141h-2.86162103z" fill="url(#b)"/><path d="m5.74974694 17.2676954v-.0078453l.45398409 1.3613343c2.52707096 7.5785787 3.88475587 11.6419969 3.89274077 11.650458.0052827.0056008.3876212.0300456.8496455.0543469 1.3998297.0736199 3.1344961.2313742 4.4504155.4046613.3031241.0399132.4853605.0525904.5035736.0380443l-5.6265779-17.1464928v.0031616l-.52806619-1.5791655c-.51597811-1.543018-.8604936-2.57493054-2.93343469-8.78663856-.55739488-1.67027131-1.03038371-3.08696576-1.05111746-3.14820823l-.03772768-.11135141h-2.86162104-2.86156144z" fill="#e50914"/><path d="m10.2228017 6.80255911-.0113421 6.80255889-.52806616-1.5791655c-.00018338-.0005442-.0008344-.0025558-.00101473-.0031l-.68237871 15.1442983c.67090832 2.0080156 1.0303654 3.0799658 1.0344029 3.0842443.0052827.0056007.3876212.0300456.8496455.0543469 1.3998297.0736199 3.1344962.2313742 4.4504156.4046612.3046856.040119.5669012.0606643.5826872.0456796.0157864-.0149851.0243825-6.9412454.0191026-15.3916757l-.0096109-15.3644071h-2.8462794-2.8462794z" fill="#b1060f"/><path d="m0 0v15.379971c0 8.4589951.00780973 15.3883094.0173714 15.3984452.00956105.0101326.50383959-.0393246 1.09839641-.1098963.59455621-.0705749 1.41627471-.1583322 1.82602432-.1949915.62842702-.056228 2.50472435-.1840856 2.72199366-.1855012.06320222-.0004211.06725594-.3460096.07641018-6.5143109l.00967047-6.5138678.45398409 1.3613343c.07016014.2104073.09216749.2761119.16052099.4810889l.68219961-15.14056546c-.14454576-.43313454-.06877284-.20576193-.234424-.7021466-.55739488-1.67027131-1.03038371-3.08696576-1.05111746-3.14820823l-.03772769-.11135141h-2.86162103z" fill="#b1060f"/><path d="m.00000153 8.63321429 5.73828571 16.13254181c.00059906-.3696919.0012837-.56945.00191026-.9920398l.00967047-6.5138678.45398409 1.3613343c2.52707096 7.5785787 3.88475584 11.6419969 3.89274074 11.650458.0052827.0056008.3876212.0300456.8496455.0543469 1.3998297.0736199 3.1344962.2313742 4.4504156.4046613.3046856.0401189.4085757.0364185.4243617.0214338.0108503-.0102998.1762587-3.3821558.1781445-8.1731165l-5.7114223-17.40302353-.0027478 1.64686205-.011342 6.80255888-.52806618-1.5791655c-.51597812-1.543018-.86049361-2.57493054-2.93343469-8.78663856-.55739488-1.67027131-1.03038371-3.08696576-1.05111746-3.14820823l-.03772769-.11135141h-2.86162103-2.86168095z" fill="url(#c)"/><path d="m5.74974694 17.2676954v-.0078453l.45398409 1.3613343c2.52707096 7.5785787 3.78828411 11.6503545 3.79626897 11.6588156.0052827.0056008.484093.021688.9461173.0459893 1.3998297.0736199 3.1344961.2313742 4.4504155.4046613.3031241.0399132.4853605.0525904.5035736.0380443l-5.6265779-17.1464928v.0031616l-.52806619-1.5791655c-.51597811-1.543018-.8604936-2.57493054-2.93343469-8.78663856-.55739488-1.67027131-1.03038371-3.08696576-1.05111746-3.14820823l-.03772768-.11135141h-2.86162104-2.86156144z" fill="#e50914"/></svg>
